<svg xmlns="http://www.w3.org/2000/svg" viewBox="0 0 800 800" shape-rendering="crispEdges">
  <circle cx="400" cy="400" r="400" fill="#000"/>

  <g fill="#fff">
    <rect x="190" y="120" width="70" height="70"/>
    <rect x="260" y="120" width="70" height="70"/>
    <rect x="330" y="120" width="70" height="70"/>
    <rect x="400" y="120" width="70" height="70"/>
    <rect x="540" y="120" width="70" height="70"/>
    <rect x="190" y="190" width="70" height="70"/>
    <rect x="400" y="190" width="70" height="70"/>
    <rect x="540" y="190" width="70" height="70"/>
    <rect x="190" y="260" width="70" height="70"/>
    <rect x="400" y="260" width="70" height="70"/>
    <rect x="540" y="260" width="70" height="70"/>
    <rect x="190" y="330" width="70" height="70"/>
    <rect x="260" y="330" width="70" height="70"/>
    <rect x="330" y="330" width="70" height="70"/>
    <rect x="400" y="330" width="70" height="70"/>
    <rect x="540" y="330" width="70" height="70"/>
    <rect x="190" y="400" width="70" height="70"/>
    <rect x="260" y="400" width="70" height="70"/>
    <rect x="540" y="400" width="70" height="70"/>
    <rect x="190" y="470" width="70" height="70"/>
    <rect x="330" y="470" width="70" height="70"/>
    <rect x="470" y="470" width="70" height="70"/>
    <rect x="190" y="540" width="70" height="70"/>
    <rect x="330" y="540" width="70" height="70"/>
    <rect x="470" y="540" width="70" height="70"/>
    <rect x="190" y="610" width="70" height="70"/>
    <rect x="330" y="610" width="70" height="70"/>
    <rect x="400" y="610" width="70" height="70"/>
    <rect x="470" y="610" width="70" height="70"/>
  </g>
</svg>
